<svg width="13" height="16" viewBox="0 0 13 16" fill="none" xmlns="http://www.w3.org/2000/svg">
<path d="M11.462 3.15505C10.3632 1.42457 8.54923 0.451172 6.50853 0.451172C4.48528 0.451172 2.67132 1.42457 1.5376 3.15505C0.403882 4.84949 0.142254 7.01259 0.839929 8.90531C1.03179 9.41004 1.3283 9.93279 1.71202 10.4015L6.12481 15.7732C6.22946 15.8813 6.33412 15.9534 6.49109 15.9534C6.64807 15.9534 6.75272 15.8813 6.85737 15.7732L11.2876 10.4015C11.6713 9.93279 11.9853 9.42806 12.1597 8.90531C12.8574 7.01259 12.5957 4.84949 11.462 3.15505ZM6.50853 9.53622C5.00853 9.53622 3.77016 8.25638 3.77016 6.70615C3.77016 5.15593 5.00853 3.87609 6.50853 3.87609C8.00853 3.87609 9.24691 5.15593 9.24691 6.70615C9.24691 8.25638 8.02598 9.53622 6.50853 9.53622Z" fill="#BDBDBD"/>
</svg>
